<?xml version="1.0" encoding="UTF-8" standalone="no"?>
<!DOCTYPE svg PUBLIC "-//W3C//DTD SVG 1.1//EN"
 "http://www.w3.org/Graphics/SVG/1.1/DTD/svg11.dtd">
<!-- Generated by graphviz version 2.46.1 (20210213.1702)
 -->
<!-- Pages: 1 -->
<svg width="1171pt" height="476pt"
 viewBox="0.00 0.00 1170.86 476.00" xmlns="http://www.w3.org/2000/svg" xmlns:xlink="http://www.w3.org/1999/xlink">
<g id="graph0" class="graph" transform="scale(1 1) rotate(0) translate(4 472)">
<polygon fill="white" stroke="transparent" points="-4,4 -4,-472 1166.86,-472 1166.86,4 -4,4"/>
<!-- [root] aws_instance.bastion (expand) -->
<g id="node1" class="node">
<title>[root] aws_instance.bastion (expand)</title>
<polygon fill="none" stroke="black" points="494,-252 359,-252 359,-216 494,-216 494,-252"/>
<text text-anchor="middle" x="426.5" y="-230.3" font-family="Times New Roman,serif" font-size="14.00">aws_instance.bastion</text>
</g>
<!-- [root] aws_security_group.bastion_sg (expand) -->
<g id="node3" class="node">
<title>[root] aws_security_group.bastion_sg (expand)</title>
<polygon fill="none" stroke="black" points="523.5,-180 329.5,-180 329.5,-144 523.5,-144 523.5,-180"/>
<text text-anchor="middle" x="426.5" y="-158.3" font-family="Times New Roman,serif" font-size="14.00">aws_security_group.bastion_sg</text>
</g>
<!-- [root] aws_instance.bastion (expand)&#45;&gt;[root] aws_security_group.bastion_sg (expand) -->
<g id="edge1" class="edge">
<title>[root] aws_instance.bastion (expand)&#45;&gt;[root] aws_security_group.bastion_sg (expand)</title>
<path fill="none" stroke="black" d="M426.5,-215.7C426.5,-207.98 426.5,-198.71 426.5,-190.11"/>
<polygon fill="black" stroke="black" points="430,-190.1 426.5,-180.1 423,-190.1 430,-190.1"/>
</g>
<!-- [root] var.AppName -->
<g id="node9" class="node">
<title>[root] var.AppName</title>
<polygon fill="none" stroke="black" points="631,-180 542,-180 542,-144 637,-144 637,-174 631,-180"/>
<polyline fill="none" stroke="black" points="631,-180 631,-174 "/>
<polyline fill="none" stroke="black" points="637,-174 631,-174 "/>
<text text-anchor="middle" x="589.5" y="-158.3" font-family="Times New Roman,serif" font-size="14.00">var.AppName</text>
</g>
<!-- [root] aws_instance.bastion (expand)&#45;&gt;[root] var.AppName -->
<g id="edge2" class="edge">
<title>[root] aws_instance.bastion (expand)&#45;&gt;[root] var.AppName</title>
<path fill="none" stroke="black" d="M466.37,-215.88C488.66,-206.31 516.62,-194.3 540.26,-184.15"/>
<polygon fill="black" stroke="black" points="541.95,-187.23 549.76,-180.07 539.19,-180.8 541.95,-187.23"/>
</g>
<!-- [root] var.Env -->
<g id="node10" class="node">
<title>[root] var.Env</title>
<polygon fill="none" stroke="black" points="708,-180 655,-180 655,-144 714,-144 714,-174 708,-180"/>
<polyline fill="none" stroke="black" points="708,-180 708,-174 "/>
<polyline fill="none" stroke="black" points="714,-174 708,-174 "/>
<text text-anchor="middle" x="684.5" y="-158.3" font-family="Times New Roman,serif" font-size="14.00">var.Env</text>
</g>
<!-- [root] aws_instance.bastion (expand)&#45;&gt;[root] var.Env -->
<g id="edge3" class="edge">
<title>[root] aws_instance.bastion (expand)&#45;&gt;[root] var.Env</title>
<path fill="none" stroke="black" d="M494.33,-220.04C535.89,-211.32 590.16,-198.54 645.27,-180.14"/>
<polygon fill="black" stroke="black" points="646.49,-183.42 654.84,-176.89 644.24,-176.79 646.49,-183.42"/>
</g>
<!-- [root] var.ami_id -->
<g id="node14" class="node">
<title>[root] var.ami_id</title>
<polygon fill="none" stroke="black" points="801,-180 732,-180 732,-144 807,-144 807,-174 801,-180"/>
<polyline fill="none" stroke="black" points="801,-180 801,-174 "/>
<polyline fill="none" stroke="black" points="807,-174 801,-174 "/>
<text text-anchor="middle" x="769.5" y="-158.3" font-family="Times New Roman,serif" font-size="14.00">var.ami_id</text>
</g>
<!-- [root] aws_instance.bastion (expand)&#45;&gt;[root] var.ami_id -->
<g id="edge4" class="edge">
<title>[root] aws_instance.bastion (expand)&#45;&gt;[root] var.ami_id</title>
<path fill="none" stroke="black" d="M494.19,-224.41C552.58,-216.21 639.14,-202.17 721.95,-180.2"/>
<polygon fill="black" stroke="black" points="723.02,-183.53 731.77,-177.55 721.2,-176.77 723.02,-183.53"/>
</g>
<!-- [root] var.instancetype -->
<g id="node16" class="node">
<title>[root] var.instancetype</title>
<polygon fill="none" stroke="black" points="101,-180 0,-180 0,-144 107,-144 107,-174 101,-180"/>
<polyline fill="none" stroke="black" points="101,-180 101,-174 "/>
<polyline fill="none" stroke="black" points="107,-174 101,-174 "/>
<text text-anchor="middle" x="53.5" y="-158.3" font-family="Times New Roman,serif" font-size="14.00">var.instancetype</text>
</g>
<!-- [root] aws_instance.bastion (expand)&#45;&gt;[root] var.instancetype -->
<g id="edge5" class="edge">
<title>[root] aws_instance.bastion (expand)&#45;&gt;[root] var.instancetype</title>
<path fill="none" stroke="black" d="M358.72,-223.29C297.95,-214.16 206.21,-199.33 117.05,-180"/>
<polygon fill="black" stroke="black" points="117.55,-176.53 107.03,-177.81 116.05,-183.37 117.55,-176.53"/>
</g>
<!-- [root] var.my_key -->
<g id="node17" class="node">
<title>[root] var.my_key</title>
<polygon fill="none" stroke="black" points="201.5,-180 125.5,-180 125.5,-144 207.5,-144 207.5,-174 201.5,-180"/>
<polyline fill="none" stroke="black" points="201.5,-180 201.5,-174 "/>
<polyline fill="none" stroke="black" points="207.5,-174 201.5,-174 "/>
<text text-anchor="middle" x="166.5" y="-158.3" font-family="Times New Roman,serif" font-size="14.00">var.my_key</text>
</g>
<!-- [root] aws_instance.bastion (expand)&#45;&gt;[root] var.my_key -->
<g id="edge6" class="edge">
<title>[root] aws_instance.bastion (expand)&#45;&gt;[root] var.my_key</title>
<path fill="none" stroke="black" d="M358.98,-217.42C320.04,-208.1 270.01,-195.54 217.46,-180.17"/>
<polygon fill="black" stroke="black" points="218.2,-176.74 207.62,-177.27 216.22,-183.46 218.2,-176.74"/>
</g>
<!-- [root] var.subnetid -->
<g id="node20" class="node">
<title>[root] var.subnetid</title>
<polygon fill="none" stroke="black" points="305,-180 226,-180 226,-144 311,-144 311,-174 305,-180"/>
<polyline fill="none" stroke="black" points="305,-180 305,-174 "/>
<polyline fill="none" stroke="black" points="311,-174 305,-174 "/>
<text text-anchor="middle" x="268.5" y="-158.3" font-family="Times New Roman,serif" font-size="14.00">var.subnetid</text>
</g>
<!-- [root] aws_instance.bastion (expand)&#45;&gt;[root] var.subnetid -->
<g id="edge7" class="edge">
<title>[root] aws_instance.bastion (expand)&#45;&gt;[root] var.subnetid</title>
<path fill="none" stroke="black" d="M387.85,-215.88C366.25,-206.31 339.15,-194.3 316.23,-184.15"/>
<polygon fill="black" stroke="black" points="317.59,-180.92 307.03,-180.07 314.75,-187.32 317.59,-180.92"/>
</g>
<!-- [root] aws_s3_bucket.remote_state_bucket (expand) -->
<g id="node2" class="node">
<title>[root] aws_s3_bucket.remote_state_bucket (expand)</title>
<polygon fill="none" stroke="black" points="1030.5,-252 806.5,-252 806.5,-216 1030.5,-216 1030.5,-252"/>
<text text-anchor="middle" x="918.5" y="-230.3" font-family="Times New Roman,serif" font-size="14.00">aws_s3_bucket.remote_state_bucket</text>
</g>
<!-- [root] provider[&quot;registry.terraform.io/hashicorp/aws&quot;] -->
<g id="node8" class="node">
<title>[root] provider[&quot;registry.terraform.io/hashicorp/aws&quot;]</title>
<polygon fill="none" stroke="black" points="905.5,-108 648.27,-90 905.5,-72 1162.73,-90 905.5,-108"/>
<text text-anchor="middle" x="905.5" y="-86.3" font-family="Times New Roman,serif" font-size="14.00">provider[&quot;registry.terraform.io/hashicorp/aws&quot;]</text>
</g>
<!-- [root] aws_s3_bucket.remote_state_bucket (expand)&#45;&gt;[root] provider[&quot;registry.terraform.io/hashicorp/aws&quot;] -->
<g id="edge8" class="edge">
<title>[root] aws_s3_bucket.remote_state_bucket (expand)&#45;&gt;[root] provider[&quot;registry.terraform.io/hashicorp/aws&quot;]</title>
<path fill="none" stroke="black" d="M930.48,-215.86C941.52,-197.88 954.98,-168.83 946.5,-144 942.85,-133.32 936.08,-123.13 929.08,-114.58"/>
<polygon fill="black" stroke="black" points="931.61,-112.15 922.39,-106.93 926.34,-116.76 931.61,-112.15"/>
</g>
<!-- [root] var.bucket_name -->
<g id="node15" class="node">
<title>[root] var.bucket_name</title>
<polygon fill="none" stroke="black" points="931.5,-180 825.5,-180 825.5,-144 937.5,-144 937.5,-174 931.5,-180"/>
<polyline fill="none" stroke="black" points="931.5,-180 931.5,-174 "/>
<polyline fill="none" stroke="black" points="937.5,-174 931.5,-174 "/>
<text text-anchor="middle" x="881.5" y="-158.3" font-family="Times New Roman,serif" font-size="14.00">var.bucket_name</text>
</g>
<!-- [root] aws_s3_bucket.remote_state_bucket (expand)&#45;&gt;[root] var.bucket_name -->
<g id="edge9" class="edge">
<title>[root] aws_s3_bucket.remote_state_bucket (expand)&#45;&gt;[root] var.bucket_name</title>
<path fill="none" stroke="black" d="M909.35,-215.7C905.1,-207.64 899.94,-197.89 895.23,-188.98"/>
<polygon fill="black" stroke="black" points="898.31,-187.31 890.54,-180.1 892.12,-190.58 898.31,-187.31"/>
</g>
<!-- [root] aws_security_group.bastion_sg (expand)&#45;&gt;[root] provider[&quot;registry.terraform.io/hashicorp/aws&quot;] -->
<g id="edge10" class="edge">
<title>[root] aws_security_group.bastion_sg (expand)&#45;&gt;[root] provider[&quot;registry.terraform.io/hashicorp/aws&quot;]</title>
<path fill="none" stroke="black" d="M523.59,-145.5C526.94,-144.99 530.25,-144.49 533.5,-144 628.88,-129.63 738.18,-114.18 813.5,-103.69"/>
<polygon fill="black" stroke="black" points="814.02,-107.15 823.44,-102.31 813.05,-100.22 814.02,-107.15"/>
</g>
<!-- [root] var.HostIp -->
<g id="node11" class="node">
<title>[root] var.HostIp</title>
<polygon fill="none" stroke="black" points="408,-108 337,-108 337,-72 414,-72 414,-102 408,-108"/>
<polyline fill="none" stroke="black" points="408,-108 408,-102 "/>
<polyline fill="none" stroke="black" points="414,-102 408,-102 "/>
<text text-anchor="middle" x="375.5" y="-86.3" font-family="Times New Roman,serif" font-size="14.00">var.HostIp</text>
</g>
<!-- [root] aws_security_group.bastion_sg (expand)&#45;&gt;[root] var.HostIp -->
<g id="edge11" class="edge">
<title>[root] aws_security_group.bastion_sg (expand)&#45;&gt;[root] var.HostIp</title>
<path fill="none" stroke="black" d="M413.89,-143.7C407.9,-135.47 400.62,-125.48 394.02,-116.42"/>
<polygon fill="black" stroke="black" points="396.68,-114.13 387.96,-108.1 391.02,-118.25 396.68,-114.13"/>
</g>
<!-- [root] var.PrivateIp -->
<g id="node12" class="node">
<title>[root] var.PrivateIp</title>
<polygon fill="none" stroke="black" points="514.5,-108 432.5,-108 432.5,-72 520.5,-72 520.5,-102 514.5,-108"/>
<polyline fill="none" stroke="black" points="514.5,-108 514.5,-102 "/>
<polyline fill="none" stroke="black" points="520.5,-102 514.5,-102 "/>
<text text-anchor="middle" x="476.5" y="-86.3" font-family="Times New Roman,serif" font-size="14.00">var.PrivateIp</text>
</g>
<!-- [root] aws_security_group.bastion_sg (expand)&#45;&gt;[root] var.PrivateIp -->
<g id="edge12" class="edge">
<title>[root] aws_security_group.bastion_sg (expand)&#45;&gt;[root] var.PrivateIp</title>
<path fill="none" stroke="black" d="M438.86,-143.7C444.73,-135.47 451.87,-125.48 458.34,-116.42"/>
<polygon fill="black" stroke="black" points="461.32,-118.28 464.28,-108.1 455.62,-114.21 461.32,-118.28"/>
</g>
<!-- [root] output.bastion_public_ip -->
<g id="node4" class="node">
<title>[root] output.bastion_public_ip</title>
<polygon fill="none" stroke="black" points="828,-324 677,-324 677,-288 834,-288 834,-318 828,-324"/>
<polyline fill="none" stroke="black" points="828,-324 828,-318 "/>
<polyline fill="none" stroke="black" points="834,-318 828,-318 "/>
<text text-anchor="middle" x="755.5" y="-302.3" font-family="Times New Roman,serif" font-size="14.00">output.bastion_public_ip</text>
</g>
<!-- [root] output.bastion_public_ip&#45;&gt;[root] aws_instance.bastion (expand) -->
<g id="edge17" class="edge">
<title>[root] output.bastion_public_ip&#45;&gt;[root] aws_instance.bastion (expand)</title>
<path fill="none" stroke="black" d="M676.7,-288.23C624.37,-277.1 555.99,-262.55 503.95,-251.48"/>
<polygon fill="black" stroke="black" points="504.6,-248.04 494.09,-249.38 503.15,-254.89 504.6,-248.04"/>
</g>
<!-- [root] output.instance_id -->
<g id="node5" class="node">
<title>[root] output.instance_id</title>
<polygon fill="none" stroke="black" points="170,-324 57,-324 57,-288 176,-288 176,-318 170,-324"/>
<polyline fill="none" stroke="black" points="170,-324 170,-318 "/>
<polyline fill="none" stroke="black" points="176,-318 170,-318 "/>
<text text-anchor="middle" x="116.5" y="-302.3" font-family="Times New Roman,serif" font-size="14.00">output.instance_id</text>
</g>
<!-- [root] output.instance_id&#45;&gt;[root] aws_instance.bastion (expand) -->
<g id="edge18" class="edge">
<title>[root] output.instance_id&#45;&gt;[root] aws_instance.bastion (expand)</title>
<path fill="none" stroke="black" d="M176.18,-289.97C178.99,-289.3 181.78,-288.64 184.5,-288 239.33,-275.15 301.38,-261.58 348.92,-251.38"/>
<polygon fill="black" stroke="black" points="349.79,-254.78 358.84,-249.26 348.33,-247.93 349.79,-254.78"/>
</g>
<!-- [root] output.s3_bucket_arn -->
<g id="node6" class="node">
<title>[root] output.s3_bucket_arn</title>
<polygon fill="none" stroke="black" points="1136,-324 1003,-324 1003,-288 1142,-288 1142,-318 1136,-324"/>
<polyline fill="none" stroke="black" points="1136,-324 1136,-318 "/>
<polyline fill="none" stroke="black" points="1142,-318 1136,-318 "/>
<text text-anchor="middle" x="1072.5" y="-302.3" font-family="Times New Roman,serif" font-size="14.00">output.s3_bucket_arn</text>
</g>
<!-- [root] output.s3_bucket_arn&#45;&gt;[root] aws_s3_bucket.remote_state_bucket (expand) -->
<g id="edge19" class="edge">
<title>[root] output.s3_bucket_arn&#45;&gt;[root] aws_s3_bucket.remote_state_bucket (expand)</title>
<path fill="none" stroke="black" d="M1034.83,-287.88C1013.87,-278.35 987.6,-266.41 965.32,-256.28"/>
<polygon fill="black" stroke="black" points="966.6,-253.02 956.05,-252.07 963.71,-259.39 966.6,-253.02"/>
</g>
<!-- [root] output.s3_bucket_id -->
<g id="node7" class="node">
<title>[root] output.s3_bucket_id</title>
<polygon fill="none" stroke="black" points="978.5,-324 852.5,-324 852.5,-288 984.5,-288 984.5,-318 978.5,-324"/>
<polyline fill="none" stroke="black" points="978.5,-324 978.5,-318 "/>
<polyline fill="none" stroke="black" points="984.5,-318 978.5,-318 "/>
<text text-anchor="middle" x="918.5" y="-302.3" font-family="Times New Roman,serif" font-size="14.00">output.s3_bucket_id</text>
</g>
<!-- [root] output.s3_bucket_id&#45;&gt;[root] aws_s3_bucket.remote_state_bucket (expand) -->
<g id="edge20" class="edge">
<title>[root] output.s3_bucket_id&#45;&gt;[root] aws_s3_bucket.remote_state_bucket (expand)</title>
<path fill="none" stroke="black" d="M918.5,-287.7C918.5,-279.98 918.5,-270.71 918.5,-262.11"/>
<polygon fill="black" stroke="black" points="922,-262.1 918.5,-252.1 915,-262.1 922,-262.1"/>
</g>
<!-- [root] var.access_key -->
<g id="node13" class="node">
<title>[root] var.access_key</title>
<polygon fill="none" stroke="black" points="845.5,-36 749.5,-36 749.5,0 851.5,0 851.5,-30 845.5,-36"/>
<polyline fill="none" stroke="black" points="845.5,-36 845.5,-30 "/>
<polyline fill="none" stroke="black" points="851.5,-30 845.5,-30 "/>
<text text-anchor="middle" x="800.5" y="-14.3" font-family="Times New Roman,serif" font-size="14.00">var.access_key</text>
</g>
<!-- [root] provider[&quot;registry.terraform.io/hashicorp/aws&quot;]&#45;&gt;[root] var.access_key -->
<g id="edge23" class="edge">
<title>[root] provider[&quot;registry.terraform.io/hashicorp/aws&quot;]&#45;&gt;[root] var.access_key</title>
<path fill="none" stroke="black" d="M882.2,-73.46C868.23,-64.15 850.22,-52.15 834.66,-41.78"/>
<polygon fill="black" stroke="black" points="836.58,-38.85 826.32,-36.21 832.7,-44.67 836.58,-38.85"/>
</g>
<!-- [root] var.region -->
<g id="node18" class="node">
<title>[root] var.region</title>
<polygon fill="none" stroke="black" points="935.5,-36 869.5,-36 869.5,0 941.5,0 941.5,-30 935.5,-36"/>
<polyline fill="none" stroke="black" points="935.5,-36 935.5,-30 "/>
<polyline fill="none" stroke="black" points="941.5,-30 935.5,-30 "/>
<text text-anchor="middle" x="905.5" y="-14.3" font-family="Times New Roman,serif" font-size="14.00">var.region</text>
</g>
<!-- [root] provider[&quot;registry.terraform.io/hashicorp/aws&quot;]&#45;&gt;[root] var.region -->
<g id="edge24" class="edge">
<title>[root] provider[&quot;registry.terraform.io/hashicorp/aws&quot;]&#45;&gt;[root] var.region</title>
<path fill="none" stroke="black" d="M905.5,-71.7C905.5,-63.98 905.5,-54.71 905.5,-46.11"/>
<polygon fill="black" stroke="black" points="909,-46.1 905.5,-36.1 902,-46.1 909,-46.1"/>
</g>
<!-- [root] var.secret_key -->
<g id="node19" class="node">
<title>[root] var.secret_key</title>
<polygon fill="none" stroke="black" points="1051.5,-36 959.5,-36 959.5,0 1057.5,0 1057.5,-30 1051.5,-36"/>
<polyline fill="none" stroke="black" points="1051.5,-36 1051.5,-30 "/>
<polyline fill="none" stroke="black" points="1057.5,-30 1051.5,-30 "/>
<text text-anchor="middle" x="1008.5" y="-14.3" font-family="Times New Roman,serif" font-size="14.00">var.secret_key</text>
</g>
<!-- [root] provider[&quot;registry.terraform.io/hashicorp/aws&quot;]&#45;&gt;[root] var.secret_key -->
<g id="edge25" class="edge">
<title>[root] provider[&quot;registry.terraform.io/hashicorp/aws&quot;]&#45;&gt;[root] var.secret_key</title>
<path fill="none" stroke="black" d="M928.36,-73.46C941.93,-64.24 959.4,-52.37 974.56,-42.06"/>
<polygon fill="black" stroke="black" points="976.87,-44.73 983.18,-36.21 972.94,-38.94 976.87,-44.73"/>
</g>
<!-- [root] meta.count&#45;boundary (EachMode fixup) -->
<g id="node21" class="node">
<title>[root] meta.count&#45;boundary (EachMode fixup)</title>
<ellipse fill="none" stroke="black" cx="755.5" cy="-378" rx="180.87" ry="18"/>
<text text-anchor="middle" x="755.5" y="-374.3" font-family="Times New Roman,serif" font-size="14.00">[root] meta.count&#45;boundary (EachMode fixup)</text>
</g>
<!-- [root] meta.count&#45;boundary (EachMode fixup)&#45;&gt;[root] output.bastion_public_ip -->
<g id="edge13" class="edge">
<title>[root] meta.count&#45;boundary (EachMode fixup)&#45;&gt;[root] output.bastion_public_ip</title>
<path fill="none" stroke="black" d="M755.5,-359.7C755.5,-351.98 755.5,-342.71 755.5,-334.11"/>
<polygon fill="black" stroke="black" points="759,-334.1 755.5,-324.1 752,-334.1 759,-334.1"/>
</g>
<!-- [root] meta.count&#45;boundary (EachMode fixup)&#45;&gt;[root] output.instance_id -->
<g id="edge14" class="edge">
<title>[root] meta.count&#45;boundary (EachMode fixup)&#45;&gt;[root] output.instance_id</title>
<path fill="none" stroke="black" d="M599.26,-368.94C486.61,-361.6 330.92,-348.34 186.06,-324.13"/>
<polygon fill="black" stroke="black" points="186.54,-320.66 176.1,-322.44 185.37,-327.56 186.54,-320.66"/>
</g>
<!-- [root] meta.count&#45;boundary (EachMode fixup)&#45;&gt;[root] output.s3_bucket_arn -->
<g id="edge15" class="edge">
<title>[root] meta.count&#45;boundary (EachMode fixup)&#45;&gt;[root] output.s3_bucket_arn</title>
<path fill="none" stroke="black" d="M826.25,-361.38C875.6,-350.48 941.53,-335.92 992.75,-324.61"/>
<polygon fill="black" stroke="black" points="993.78,-327.97 1002.79,-322.39 992.27,-321.13 993.78,-327.97"/>
</g>
<!-- [root] meta.count&#45;boundary (EachMode fixup)&#45;&gt;[root] output.s3_bucket_id -->
<g id="edge16" class="edge">
<title>[root] meta.count&#45;boundary (EachMode fixup)&#45;&gt;[root] output.s3_bucket_id</title>
<path fill="none" stroke="black" d="M794.13,-360.41C816.65,-350.74 845.28,-338.44 869.39,-328.09"/>
<polygon fill="black" stroke="black" points="870.92,-331.24 878.73,-324.08 868.16,-324.81 870.92,-331.24"/>
</g>
<!-- [root] provider[&quot;registry.terraform.io/hashicorp/aws&quot;] (close) -->
<g id="node22" class="node">
<title>[root] provider[&quot;registry.terraform.io/hashicorp/aws&quot;] (close)</title>
<ellipse fill="none" stroke="black" cx="426.5" cy="-306" rx="232.86" ry="18"/>
<text text-anchor="middle" x="426.5" y="-302.3" font-family="Times New Roman,serif" font-size="14.00">[root] provider[&quot;registry.terraform.io/hashicorp/aws&quot;] (close)</text>
</g>
<!-- [root] provider[&quot;registry.terraform.io/hashicorp/aws&quot;] (close)&#45;&gt;[root] aws_instance.bastion (expand) -->
<g id="edge21" class="edge">
<title>[root] provider[&quot;registry.terraform.io/hashicorp/aws&quot;] (close)&#45;&gt;[root] aws_instance.bastion (expand)</title>
<path fill="none" stroke="black" d="M426.5,-287.7C426.5,-279.98 426.5,-270.71 426.5,-262.11"/>
<polygon fill="black" stroke="black" points="430,-262.1 426.5,-252.1 423,-262.1 430,-262.1"/>
</g>
<!-- [root] provider[&quot;registry.terraform.io/hashicorp/aws&quot;] (close)&#45;&gt;[root] aws_s3_bucket.remote_state_bucket (expand) -->
<g id="edge22" class="edge">
<title>[root] provider[&quot;registry.terraform.io/hashicorp/aws&quot;] (close)&#45;&gt;[root] aws_s3_bucket.remote_state_bucket (expand)</title>
<path fill="none" stroke="black" d="M532.35,-289.94C609.81,-278.92 715.09,-263.94 796.16,-252.41"/>
<polygon fill="black" stroke="black" points="797.01,-255.82 806.42,-250.95 796.03,-248.89 797.01,-255.82"/>
</g>
<!-- [root] root -->
<g id="node23" class="node">
<title>[root] root</title>
<ellipse fill="none" stroke="black" cx="590.5" cy="-450" rx="49.29" ry="18"/>
<text text-anchor="middle" x="590.5" y="-446.3" font-family="Times New Roman,serif" font-size="14.00">[root] root</text>
</g>
<!-- [root] root&#45;&gt;[root] meta.count&#45;boundary (EachMode fixup) -->
<g id="edge26" class="edge">
<title>[root] root&#45;&gt;[root] meta.count&#45;boundary (EachMode fixup)</title>
<path fill="none" stroke="black" d="M621.54,-435.83C645.5,-425.67 679.12,-411.41 706.68,-399.71"/>
<polygon fill="black" stroke="black" points="708.31,-402.82 716.15,-395.7 705.57,-396.38 708.31,-402.82"/>
</g>
<!-- [root] root&#45;&gt;[root] provider[&quot;registry.terraform.io/hashicorp/aws&quot;] (close) -->
<g id="edge27" class="edge">
<title>[root] root&#45;&gt;[root] provider[&quot;registry.terraform.io/hashicorp/aws&quot;] (close)</title>
<path fill="none" stroke="black" d="M572.32,-433.26C543.6,-408.39 487.54,-359.85 453.92,-330.74"/>
<polygon fill="black" stroke="black" points="456.14,-328.03 446.29,-324.13 451.56,-333.32 456.14,-328.03"/>
</g>
</g>
</svg>
